<svg width="100" height="100" viewBox="0 0 100 100" fill="none" xmlns="http://www.w3.org/2000/svg">
<g clip-path="url(#clip0_15_16)">
<path d="M100 50.13L88.62 38.368H78.024L86.056 30.334L85.498 14.756L69.128 14.486L61.632 21.982V10.618L50.222 0L38.458 11.38V21.982L31.104 14.628L14.568 14.66L15.046 31.338L22.074 38.368H11.676L0 50.082L12.13 61.542H22.074L14.72 68.896L14.75 85.432L31.43 84.954L38.458 77.926V88.324L50.174 100L61.632 87.87V77.934L69.666 85.966L85.244 85.406L85.512 69.038L78.016 61.542H89.382L100 50.13ZM61.632 26.664L70.478 17.82L82.302 18.014L82.696 29.012L73.342 38.368H61.632V26.664ZM41.768 12.782L50.266 4.564L58.322 12.06V25.294L50.046 33.57L41.768 25.294V12.782ZM18.316 29.928L17.974 17.964L29.736 17.942L38.458 26.664V38.368H26.756L18.316 29.928ZM13.446 58.23L4.744 50.012L13.05 41.678H25.384L33.66 49.954L25.384 58.23H13.446ZM38.458 73.244L30.02 81.684L18.054 82.026L18.034 70.264L26.756 61.542H38.458V73.244ZM58.322 86.554L50.102 95.254L41.768 86.948V74.616L50.044 66.34L58.322 74.622V86.554ZM58.322 58.23V69.938L50.046 61.656L41.768 69.934V58.23H30.066L38.342 49.954L30.066 41.678H41.768V29.976L50.046 38.252L58.322 29.976V41.678H70.028L61.748 49.954L70.024 58.23H58.322ZM82.18 70.386L81.986 82.21L70.986 82.606L61.632 73.25V61.542H73.336L82.18 70.386ZM74.706 58.23L66.43 49.954L74.712 41.678H87.218L95.436 50.176L87.94 58.23H74.706Z" fill="#B09356"/>
</g>
<defs>
<clipPath id="clip0_15_16">
<rect width="100" height="100" fill="white"/>
</clipPath>
</defs>
</svg>
