<svg width="81" height="74" viewBox="0 0 81 74" fill="none" xmlns="http://www.w3.org/2000/svg">
<g clip-path="url(#clip0_15_63)">
<path d="M26.3282 38.7758C30.8674 41.4622 34.7873 43.7819 36.3308 47.1098C36.435 47.334 36.6599 47.4776 36.907 47.4776C37.1541 47.4776 37.3789 47.334 37.4831 47.1098C39.0266 43.7819 42.9472 41.4622 47.4857 38.7758C55.2245 34.196 64.8562 28.4956 64.8555 14.869C64.679 7.79089 59.2339 1.72462 52.1907 0.759097C46.8683 0.0279693 40.245 2.41128 36.9063 11.0235C33.5683 2.41192 26.9437 0.0311454 21.6225 0.759097C14.5793 1.72462 9.13432 7.79088 8.95773 14.8849C8.95773 28.4956 18.5894 34.196 26.3282 38.7758Z" fill="#5E4C28"/>
<path d="M79.466 52.5974H66.791C66.6761 51.6141 66.2003 49.7396 64.3029 48.2799C60.7153 45.5187 54.0538 45.6692 44.567 48.7119L44.2144 48.7881C39.808 49.7415 37.3802 50.2675 33.2551 49.1025L32.8175 48.978C30.3675 48.2761 25.806 46.9688 23.1331 48.5619C22.2228 49.1044 21.6213 49.9283 21.3431 51.0126C12.9252 44.8142 8.58232 45.3363 6.89583 46.0249C4.5716 45.2766 3.00009 44.8079 1.59628 45.4913C0.794643 45.8839 0.217237 46.6893 0.0901951 47.5933C-0.0254131 48.4139 0.243281 49.1876 0.827674 49.7155C1.83321 50.6232 2.99755 51.7234 4.3461 52.9976C7.55582 56.0301 11.5507 59.8045 15.6014 63.0257C18.3773 65.2902 19.842 66.0169 23.3814 66.0379C23.6927 66.2017 23.9893 66.3402 24.2745 66.4444C29.7253 68.465 44.0848 71.878 50.2915 72.6313C52.1202 72.9261 53.5888 73.0461 55.3598 73.0461H79.466C79.8167 73.0461 80.1012 72.7616 80.1012 72.4109V53.2339C80.1012 52.882 79.8167 52.5974 79.466 52.5974ZM5.21761 52.0734C3.86334 50.7941 2.69392 49.6888 1.67822 48.7722C1.31424 48.4432 1.31488 48.003 1.34728 47.7698C1.41651 47.2776 1.72586 46.8418 2.15272 46.6322C2.97278 46.2326 4.09837 46.4823 5.68195 46.9733C5.47932 47.2617 5.32496 47.5869 5.24746 47.9471C5.06897 48.7811 5.27732 49.6329 5.81852 50.284C7.69556 52.5473 10.7693 55.1967 14.3291 58.2648C16.7022 60.3095 19.1522 62.4248 21.5228 64.6595C19.5911 64.4104 18.4198 63.6863 16.396 62.0354C12.3828 58.8428 8.41018 55.0894 5.21761 52.0734ZM78.8308 71.7744H55.3598C53.6613 71.7744 52.2511 71.6588 50.4693 71.3724C44.304 70.6234 30.1032 67.2492 24.7135 65.2508C24.4397 65.1511 24.1551 65.019 23.8534 64.8532C23.3833 64.582 22.9578 64.2663 22.5881 63.9131C20.1362 61.5914 17.6061 59.4113 15.1599 57.3024C11.6434 54.2719 8.60709 51.6542 6.79738 49.4722C6.50645 49.1216 6.39465 48.6629 6.49121 48.2126C6.58077 47.7952 6.84311 47.4529 7.20963 47.2731C7.53803 47.1137 8.17261 46.8939 9.18005 46.8939C11.3328 46.8939 15.1853 47.8956 21.3697 52.6203C21.7966 53.6519 22.9806 54.4923 24.9237 55.13C27.6577 55.8484 32.0876 57.4981 34.4061 58.6605C36.1485 59.5289 38.1939 59.976 40.6598 60.0294C41.0009 60.0364 41.3471 60.0402 41.6952 60.0434C43.1727 60.0586 44.701 60.0745 45.8602 60.3775C46.7076 60.6538 47.1745 60.8063 47.7995 61.8639C47.9774 62.1656 48.3674 62.2653 48.6698 62.0875C48.9721 61.909 49.0719 61.5196 48.8934 61.2172C48.0244 59.7467 47.2037 59.4793 46.2541 59.1693C46.2414 59.1655 46.1747 59.1439 46.162 59.1407C44.8693 58.8054 43.2622 58.7882 41.7085 58.7723C41.3649 58.7685 41.0225 58.7653 40.6871 58.7583C38.4124 58.7094 36.5436 58.3054 34.974 57.5235C32.5939 56.3306 28.049 54.6377 25.2833 53.9117C23.168 53.2168 22.6376 52.4456 22.5112 52.0454C22.5099 52.0416 22.5087 52.0378 22.5074 52.034C22.4293 51.7755 22.4934 51.5995 22.4921 51.5995C22.5144 51.5538 22.5315 51.5055 22.5423 51.456C22.724 50.6315 23.1293 50.0414 23.7829 49.652C25.9845 48.339 30.3624 49.5948 32.4662 50.1976L32.9096 50.324C37.3395 51.5747 40.0277 50.9923 44.4818 50.0286L44.8935 49.9365C56.2319 46.3038 61.2723 47.5685 63.5038 49.2683C65.6242 50.883 65.5581 53.1088 65.5543 53.1996C65.5454 53.373 65.6083 53.5433 65.7277 53.6697C65.8478 53.7961 66.0142 53.8672 66.1882 53.8672H78.8289V71.7744H78.8308Z" fill="#5E4C28"/>
</g>
<defs>
<clipPath id="clip0_15_63">
<rect width="80.1" height="73.0493" fill="white"/>
</clipPath>
</defs>
</svg>
